<svg width="741" height="256" viewBox="0 0 741 256" fill="none" xmlns="http://www.w3.org/2000/svg">
<rect x="189.841" y="115.194" width="142.746" height="142.746" rx="25.5" transform="rotate(118.01 189.841 115.194)" fill="#D9D9D9" stroke="#0E241E" stroke-width="11"/>
<rect x="100.24" y="167.768" width="26.8349" height="26.8349" rx="7" transform="rotate(28.0097 100.24 167.768)" fill="#0E241E"/>
<rect x="70.2295" y="151.619" width="26.8349" height="26.8349" rx="7" transform="rotate(118.01 70.2295 151.619)" fill="#0E241E"/>
<rect x="87.7573" y="126.555" width="26.8349" height="26.8349" rx="7" transform="rotate(28.0097 87.7573 126.555)" fill="#0E241E"/>
<rect x="111.443" y="139.137" width="26.8349" height="26.8349" rx="7" transform="rotate(118.01 111.443 139.137)" fill="#0E241E"/>
<rect x="75.2891" y="85.3149" width="26.8349" height="26.8349" rx="7" transform="rotate(28.0097 75.2891 85.3149)" fill="#0E241E"/>
<rect x="152.683" y="126.668" width="26.8349" height="26.8349" rx="7" transform="rotate(118.01 152.683 126.668)" fill="#0E241E"/>
<rect x="206.749" y="-4.11137" width="142.746" height="142.746" rx="25.5" transform="rotate(53.1275 206.749 -4.11137)" fill="#D9D9D9" stroke="#0E241E" stroke-width="11"/>
<rect x="216.318" y="99.333" width="26.8349" height="26.8349" rx="7" transform="rotate(-36.8725 216.318 99.333)" fill="#0E241E"/>
<rect x="173.703" y="93.1409" width="26.8349" height="26.8349" rx="7" transform="rotate(-36.8725 173.703 93.1409)" fill="#0E241E"/>
<rect x="131.07" y="86.9247" width="26.8349" height="26.8349" rx="7" transform="rotate(-36.8725 131.07 86.9247)" fill="#0E241E"/>
<path d="M707.125 104.808H730.635V216.909H707.125V104.808Z" fill="#0E241E"/>
<path d="M674.858 104.808H698.09V207.518H689.034V217.002L651.268 217.096L584.208 217.002V171.747H624.128V162.624H601.249V135.677H637.83V153.577L646.737 153.641V171.672L651.524 171.607H675.115L674.858 104.808Z" fill="#0E241E"/>
<path fill-rule="evenodd" clip-rule="evenodd" d="M393.254 144.617V208.184H384.255V216.589H298.54V194.342L286.235 193.88V216.586H216.858V193.88H205.527V215.353H197.127V234.373H186.579V244.336H134.401V234.373L120.531 233.201V180.457H144.559V201.945H179.135V149.202H185.777V140.802H234.316V149.202H241.865V171.183H278.726V104.436H301.612V150.996H313.558V135.711H384.19V144.617H393.254ZM370.974 171.645V162.18H312.752V171.645H370.974Z" fill="#0E241E"/>
<path fill-rule="evenodd" clip-rule="evenodd" d="M575.228 144.584V207.732H566.229V216.909H512.172V198.531H503.132V216.817L472.654 216.716L402.205 216.807L402.205 104.898L425.344 104.808V172.556L451.65 171.747V150.907H472.654L472.654 171.747H514.321V144.464H523.331V135.523L566.221 135.643V144.584H575.228ZM548.114 180.581L548.116 162.588H539.119L539.118 180.581H548.114Z" fill="#0E241E"/>
<path d="M402.304 222.904H424.913V245.514H402.304V222.904Z" fill="#0E241E"/>
<path d="M216.607 222.904H239.216V245.514H216.607V222.904Z" fill="#0E241E"/>
<path d="M428.472 222.904H451.081V245.514H428.472V222.904Z" fill="#0E241E"/>
<path d="M242.775 222.904H265.384V245.514H242.775V222.904Z" fill="#0E241E"/>
<path d="M428.471 222.904V245.513H451.081V222.904H428.471ZM242.774 222.904V245.513H265.384V222.904H242.774ZM548.115 162.589L548.113 180.581H539.117L539.119 162.589H548.115ZM674.858 104.807L675.115 171.607H651.524L646.738 171.672V153.641L637.83 153.576V135.677H601.248V162.624H624.128V171.748H584.208V217.002L651.268 217.096L689.033 217.002V207.519H698.09V104.807H674.858ZM370.974 162.18V171.645H312.752V162.18H370.974ZM239.216 245.513V222.904H216.606V245.513H239.216ZM424.913 245.513V222.904H402.304V245.513H424.913ZM402.206 216.808L472.653 216.715L503.132 216.817V198.531H512.172V216.908H566.23V207.733H575.228V144.584H566.221V135.642L523.33 135.523V144.464H514.321V171.748H472.653V150.907H451.65V171.748L425.344 172.555V104.807L402.206 104.898V216.808ZM707.125 216.908H730.635V104.807H707.125V216.908ZM278.726 104.436V171.183H241.864V149.202H234.315V140.802H185.777V149.202H179.135V201.946H144.558V180.458H120.531V233.201H134.401V244.335H186.578V234.373H197.127V215.354H205.527V193.881H216.858V216.587H286.235V193.881L298.54 194.342V216.589H384.254V208.184H393.254V144.616H384.19V135.711H313.557V150.995H301.612V104.436H278.726ZM311.51 123.813C311.51 124.918 312.405 125.813 313.51 125.813H390.308C391.413 125.813 392.308 124.918 392.308 123.813V97.0314C392.308 95.9299 393.199 95.0358 394.3 95.0314L433.234 94.8787C434.341 94.8743 435.242 95.771 435.242 96.8787V160.286C435.242 161.415 436.175 162.32 437.303 162.285L439.814 162.208C440.894 162.175 441.752 161.289 441.752 160.209V143.009C441.752 141.905 442.647 141.009 443.752 141.009H480.551C481.655 141.009 482.551 141.905 482.551 143.009V159.85C482.551 160.954 483.446 161.85 484.551 161.85H502.423C503.528 161.85 504.423 160.954 504.423 159.85V136.566C504.423 135.462 505.318 134.566 506.423 134.566H511.433C512.537 134.566 513.433 133.671 513.433 132.566V127.604C513.433 126.497 514.332 125.601 515.438 125.604L574.124 125.766C575.227 125.77 576.119 126.664 576.119 127.766V132.687C576.119 133.791 577.014 134.687 578.119 134.687H583.126C584.23 134.687 585.126 135.582 585.126 136.687V159.85C585.126 160.954 586.021 161.85 587.126 161.85H589.351C590.455 161.85 591.351 160.954 591.351 159.85V127.779C591.351 126.674 592.246 125.779 593.351 125.779H645.728C646.832 125.779 647.728 126.674 647.728 127.779V141.764C647.728 142.862 648.614 143.755 649.713 143.764L654.65 143.8C655.749 143.808 656.635 144.701 656.635 145.8V159.709C656.635 160.814 657.531 161.709 658.635 161.709H663.171C664.278 161.709 665.175 160.809 665.171 159.701L664.929 96.9172C664.925 95.8096 665.822 94.9095 666.929 94.9095H738.532C739.637 94.9095 740.532 95.8049 740.532 96.9095V224.806C740.532 225.911 739.637 226.806 738.532 226.806H698.966C698.947 226.806 698.931 226.821 698.931 226.841V226.841C698.931 226.86 698.916 226.875 698.897 226.875L651.292 226.994H651.254L574.35 226.886C574.328 226.886 574.31 226.868 574.31 226.846V226.846C574.31 226.824 574.292 226.806 574.27 226.806H502.322C502.296 226.806 502.274 226.785 502.274 226.758V226.758C502.274 226.732 502.253 226.711 502.227 226.711L472.634 226.613L462.976 226.625C461.872 226.627 460.978 227.522 460.978 228.625V253.411C460.978 254.515 460.083 255.411 458.978 255.411H394.406C393.301 255.411 392.406 254.515 392.406 253.411V226.765C392.406 226.738 392.384 226.717 392.357 226.717V226.717C392.33 226.717 392.308 226.696 392.308 226.669V226.602C392.308 226.538 392.257 226.487 392.193 226.487H288.643C288.643 226.487 288.642 226.486 288.642 226.486V226.486C288.642 226.485 288.641 226.484 288.641 226.484H277.281C276.177 226.484 275.281 227.38 275.281 228.484V253.411C275.281 254.515 274.386 255.411 273.281 255.411H208.709C207.604 255.411 206.709 254.515 206.709 253.411V246.271C206.709 245.166 205.813 244.271 204.709 244.271H198.476C197.371 244.271 196.476 245.166 196.476 246.271V252.233C196.476 253.338 195.58 254.233 194.476 254.233H126.504C125.399 254.233 124.504 253.338 124.504 252.233V244.297C124.504 243.193 123.608 242.297 122.504 242.297H112.633C111.529 242.297 110.633 241.402 110.633 240.297V172.56C110.633 171.455 111.529 170.56 112.633 170.56H152.456C153.561 170.56 154.456 171.455 154.456 172.56V190.048C154.456 191.153 155.352 192.048 156.456 192.048H167.238C168.342 192.048 169.238 191.153 169.238 190.048V141.304C169.238 140.199 170.133 139.304 171.238 139.304H173.879C174.984 139.304 175.879 138.409 175.879 137.304V132.904C175.879 131.8 176.775 130.904 177.879 130.904H242.213C243.318 130.904 244.213 131.8 244.213 132.904V137.304C244.213 138.409 245.108 139.304 246.213 139.304H249.762C250.867 139.304 251.762 140.199 251.762 141.304V159.285C251.762 160.39 252.657 161.285 253.762 161.285H266.829C267.933 161.285 268.829 160.39 268.829 159.285V96.538C268.829 95.4335 269.724 94.538 270.829 94.538H309.51C310.614 94.538 311.51 95.4335 311.51 96.538V123.813Z" fill="#0E241E"/>
<path d="M697.227 91.0224H720.737V203.123H697.227V91.0224Z" fill="#FCC877"/>
<path d="M664.96 91.0224H688.192V193.733H679.136V203.217L641.37 203.311L574.31 203.217V157.962H614.23V148.839H591.351V121.891H627.932V139.791L636.839 139.856V157.886L641.627 157.822H665.217L664.96 91.0224Z" fill="#FCC877"/>
<path fill-rule="evenodd" clip-rule="evenodd" d="M383.356 130.831V194.399H374.357V202.804H288.642V180.557L276.337 180.095V202.801H206.96V180.095H195.629V201.568H187.23V220.588H176.681V230.55H124.503V220.588L110.633 219.416V166.672H134.661V188.16H169.237V135.417H175.879V127.017H224.418V135.417H231.967V157.398H268.828V90.6504H291.714V137.211H303.66V121.926H374.292V130.831H383.356ZM361.077 157.86V148.395H302.854V157.86H361.077Z" fill="#FCC877"/>
<path fill-rule="evenodd" clip-rule="evenodd" d="M565.33 130.799V193.947H556.332V203.123H502.274V184.745H493.234V203.032L462.756 202.93L392.307 203.022L392.307 91.1125L415.446 91.0224V158.77L441.752 157.962V137.122H462.756L462.756 157.962H504.423V130.679H513.433V121.738L556.323 121.857V130.799H565.33ZM538.216 166.796L538.218 148.803H529.221L529.22 166.796H538.216Z" fill="#FCC877"/>
<path d="M392.406 209.119H415.015V231.728H392.406V209.119Z" fill="#FCC877"/>
<path d="M206.709 209.119H229.318V231.728H206.709V209.119Z" fill="#FCC877"/>
<path d="M418.574 209.119H441.183V231.728H418.574V209.119Z" fill="#FCC877"/>
<path d="M232.877 209.119H255.486V231.728H232.877V209.119Z" fill="#FCC877"/>
<path d="M418.574 209.119V231.728H441.183V209.119H418.574ZM232.877 209.119V231.728H255.486V209.119H232.877ZM538.217 148.803L538.216 166.795H529.22L529.221 148.803H538.217ZM664.961 91.0218L665.217 157.821H641.626L636.84 157.886V139.856L627.933 139.791V121.891H591.351V148.839H614.231V157.962H574.31V203.217L641.371 203.311L679.136 203.217V193.733H688.193V91.0218H664.961ZM361.077 148.395V157.86H302.855V148.395H361.077ZM229.318 231.728V209.119H206.709V231.728H229.318ZM415.016 231.728V209.119H392.406V231.728H415.016ZM392.308 203.022L462.756 202.93L493.234 203.032V184.746H502.275V203.123H556.332V193.948H565.331V130.799H556.324V121.857L513.433 121.738V130.679H504.423V157.962H462.756V137.122H441.752V157.962L415.446 158.77V91.0218L392.308 91.1129V203.022ZM697.227 203.123H720.737V91.0218H697.227V203.123ZM268.829 90.6503V157.397H231.967V135.416H224.418V127.017H175.88V135.416H169.238V188.161H134.661V166.672H110.634V219.415H124.504V230.55H176.681V220.588H187.23V201.568H195.629V180.095H206.96V202.801H276.338V180.095L288.642 180.556V202.804H374.356V194.399H383.356V130.831H374.293V121.926H303.66V137.21H291.715V90.6503H268.829ZM301.612 110.028C301.612 111.133 302.508 112.028 303.612 112.028H380.41C381.515 112.028 382.41 111.133 382.41 110.028V83.2461C382.41 82.1446 383.301 81.2504 384.403 81.2461L423.336 81.0933C424.444 81.089 425.344 81.9857 425.344 83.0933V146.501C425.344 147.629 426.277 148.534 427.406 148.5L429.916 148.422C430.996 148.389 431.855 147.504 431.855 146.423V129.224C431.855 128.119 432.75 127.224 433.855 127.224H470.653C471.758 127.224 472.653 128.119 472.653 129.224V146.065C472.653 147.169 473.549 148.065 474.653 148.065H492.526C493.63 148.065 494.526 147.169 494.526 146.065V122.781C494.526 121.676 495.421 120.781 496.526 120.781H501.535C502.64 120.781 503.535 119.886 503.535 118.781V113.818C503.535 112.711 504.434 111.815 505.541 111.818L564.227 111.981C565.329 111.984 566.221 112.879 566.221 113.981V118.901C566.221 120.006 567.117 120.901 568.221 120.901H573.228C574.333 120.901 575.228 121.797 575.228 122.901V146.065C575.228 147.169 576.124 148.065 577.228 148.065H579.453C580.558 148.065 581.453 147.169 581.453 146.065V113.994C581.453 112.889 582.349 111.994 583.453 111.994H635.83C636.935 111.994 637.83 112.889 637.83 113.994V127.978C637.83 129.077 638.717 129.97 639.815 129.978L644.753 130.015C645.852 130.023 646.738 130.916 646.738 132.015V145.924C646.738 147.028 647.633 147.924 648.738 147.924H653.273C654.381 147.924 655.278 147.024 655.273 145.916L655.032 83.1318C655.028 82.0242 655.924 81.1241 657.032 81.1241H728.635C729.739 81.1241 730.635 82.0196 730.635 83.1241V211.021C730.635 212.125 729.739 213.021 728.635 213.021H689.068C689.049 213.021 689.034 213.036 689.034 213.055V213.055C689.034 213.074 689.018 213.09 688.999 213.09L641.394 213.208H641.357L564.453 213.101C564.43 213.101 564.413 213.083 564.413 213.061V213.061C564.413 213.039 564.395 213.021 564.372 213.021H492.425C492.398 213.021 492.377 212.999 492.377 212.973V212.973C492.377 212.947 492.356 212.925 492.329 212.925L462.736 212.827L453.078 212.84C451.975 212.841 451.081 213.736 451.081 214.84V239.626C451.081 240.73 450.186 241.626 449.081 241.626H384.509C383.404 241.626 382.509 240.73 382.509 239.626V212.98C382.509 212.953 382.486 212.931 382.459 212.932V212.932C382.433 212.932 382.41 212.91 382.41 212.883V212.816C382.41 212.753 382.359 212.702 382.296 212.702H278.746C278.745 212.702 278.745 212.701 278.745 212.7V212.7C278.745 212.7 278.744 212.699 278.743 212.699H267.384C266.279 212.699 265.384 213.594 265.384 214.699V239.626C265.384 240.73 264.488 241.626 263.384 241.626H198.811C197.707 241.626 196.811 240.73 196.811 239.626V232.485C196.811 231.381 195.916 230.485 194.811 230.485H188.578C187.474 230.485 186.578 231.381 186.578 232.485V238.448C186.578 239.552 185.683 240.448 184.578 240.448H116.606C115.502 240.448 114.606 239.552 114.606 238.448V230.512C114.606 229.407 113.711 228.512 112.606 228.512H102.736C101.631 228.512 100.736 227.617 100.736 226.512V158.775C100.736 157.67 101.631 156.775 102.736 156.775H142.559C143.663 156.775 144.559 157.67 144.559 158.775V176.263C144.559 177.367 145.454 178.263 146.559 178.263H157.34C158.445 178.263 159.34 177.367 159.34 176.263V127.519C159.34 126.414 160.236 125.519 161.34 125.519H163.982C165.087 125.519 165.982 124.623 165.982 123.519V119.119C165.982 118.015 166.877 117.119 167.982 117.119H232.316C233.42 117.119 234.316 118.015 234.316 119.119V123.519C234.316 124.623 235.211 125.519 236.316 125.519H239.865C240.969 125.519 241.865 126.414 241.865 127.519V145.5C241.865 146.604 242.76 147.5 243.865 147.5H256.931C258.036 147.5 258.931 146.604 258.931 145.5V82.7527C258.931 81.6481 259.827 80.7527 260.931 80.7527H299.612C300.717 80.7527 301.612 81.6481 301.612 82.7527V110.028Z" fill="#0E241E"/>
</svg>
