<svg width="1512" height="983" viewBox="0 0 1512 983" fill="none" xmlns="http://www.w3.org/2000/svg">
<g clip-path="url(#clip0_3_106)">
<rect width="1512" height="982" transform="translate(0 0.5)" fill="url(#paint0_linear_3_106)"/>
<g opacity="0.19">
<rect x="756" y="465.949" width="55.3804" height="55.3804" fill="#07130F" fill-opacity="0.45"/>
<rect x="866.761" y="465.949" width="55.3804" height="55.3804" fill="#07130F" fill-opacity="0.45"/>
<rect x="977.522" y="465.949" width="55.3804" height="55.3804" fill="#07130F" fill-opacity="0.45"/>
<rect x="1088.28" y="465.949" width="55.3804" height="55.3804" fill="#07130F" fill-opacity="0.45"/>
<rect x="1199.04" y="465.949" width="55.3804" height="55.3804" fill="#07130F" fill-opacity="0.45"/>
<rect x="-19.3252" y="465.949" width="55.3804" height="55.3804" fill="#07130F" fill-opacity="0.45"/>
<rect x="1309.8" y="465.949" width="55.3804" height="55.3804" fill="#07130F" fill-opacity="0.45"/>
<rect x="91.4355" y="465.949" width="55.3804" height="55.3804" fill="#07130F" fill-opacity="0.45"/>
<rect x="1420.57" y="465.949" width="55.3804" height="55.3804" fill="#07130F" fill-opacity="0.45"/>
<rect x="202.196" y="465.949" width="55.3804" height="55.3804" fill="#07130F" fill-opacity="0.45"/>
<rect x="312.957" y="465.949" width="55.3804" height="55.3804" fill="#07130F" fill-opacity="0.45"/>
<rect x="423.718" y="465.949" width="55.3804" height="55.3804" fill="#07130F" fill-opacity="0.45"/>
<rect x="534.479" y="465.949" width="55.3804" height="55.3804" fill="#07130F" fill-opacity="0.45"/>
<rect x="645.239" y="465.949" width="55.3804" height="55.3804" fill="#07130F" fill-opacity="0.45"/>
<rect x="811.381" y="521.426" width="55.3804" height="55.3804" fill="#07130F" fill-opacity="0.45"/>
<rect x="922.142" y="521.426" width="55.3804" height="55.3804" fill="#07130F" fill-opacity="0.45"/>
<rect x="1032.9" y="521.426" width="55.3804" height="55.3804" fill="#07130F" fill-opacity="0.45"/>
<rect x="1143.66" y="521.426" width="55.3804" height="55.3804" fill="#07130F" fill-opacity="0.45"/>
<rect x="1254.42" y="521.426" width="55.3804" height="55.3804" fill="#07130F" fill-opacity="0.45"/>
<rect x="36.0552" y="521.426" width="55.3804" height="55.3804" fill="#07130F" fill-opacity="0.45"/>
<rect x="1365.18" y="521.426" width="55.3804" height="55.3804" fill="#07130F" fill-opacity="0.45"/>
<rect x="146.816" y="521.426" width="55.3804" height="55.3804" fill="#07130F" fill-opacity="0.45"/>
<rect x="1475.95" y="521.426" width="55.3804" height="55.3804" fill="#07130F" fill-opacity="0.45"/>
<rect x="257.577" y="521.426" width="55.3804" height="55.3804" fill="#07130F" fill-opacity="0.45"/>
<rect x="368.337" y="521.426" width="55.3804" height="55.3804" fill="#07130F" fill-opacity="0.45"/>
<rect x="479.098" y="521.426" width="55.3804" height="55.3804" fill="#07130F" fill-opacity="0.45"/>
<rect x="589.859" y="521.426" width="55.3804" height="55.3804" fill="#07130F" fill-opacity="0.45"/>
<rect x="700.62" y="521.426" width="55.3804" height="55.3804" fill="#07130F" fill-opacity="0.45"/>
<rect x="756" y="576.709" width="55.3804" height="55.3804" fill="#07130F" fill-opacity="0.45"/>
<rect x="866.761" y="576.709" width="55.3804" height="55.3804" fill="#07130F" fill-opacity="0.45"/>
<rect x="977.522" y="576.709" width="55.3804" height="55.3804" fill="#07130F" fill-opacity="0.45"/>
<rect x="1088.28" y="576.709" width="55.3804" height="55.3804" fill="#07130F" fill-opacity="0.45"/>
<rect x="1199.04" y="576.709" width="55.3804" height="55.3804" fill="#07130F" fill-opacity="0.45"/>
<rect x="-19.3252" y="576.709" width="55.3804" height="55.3804" fill="#07130F" fill-opacity="0.45"/>
<rect x="1309.8" y="576.709" width="55.3804" height="55.3804" fill="#07130F" fill-opacity="0.45"/>
<rect x="91.4355" y="576.709" width="55.3804" height="55.3804" fill="#07130F" fill-opacity="0.45"/>
<rect x="1420.57" y="576.709" width="55.3804" height="55.3804" fill="#07130F" fill-opacity="0.45"/>
<rect x="202.196" y="576.709" width="55.3804" height="55.3804" fill="#07130F" fill-opacity="0.45"/>
<rect x="312.957" y="576.709" width="55.3804" height="55.3804" fill="#07130F" fill-opacity="0.45"/>
<rect x="423.718" y="576.709" width="55.3804" height="55.3804" fill="#07130F" fill-opacity="0.45"/>
<rect x="534.479" y="576.709" width="55.3804" height="55.3804" fill="#07130F" fill-opacity="0.45"/>
<rect x="645.239" y="576.709" width="55.3804" height="55.3804" fill="#07130F" fill-opacity="0.45"/>
<rect x="811.381" y="632.187" width="55.3804" height="55.3804" fill="#07130F" fill-opacity="0.45"/>
<rect x="922.142" y="632.187" width="55.3804" height="55.3804" fill="#07130F" fill-opacity="0.45"/>
<rect x="1032.9" y="632.187" width="55.3804" height="55.3804" fill="#07130F" fill-opacity="0.45"/>
<rect x="1143.66" y="632.187" width="55.3804" height="55.3804" fill="#07130F" fill-opacity="0.45"/>
<rect x="1254.42" y="632.187" width="55.3804" height="55.3804" fill="#07130F" fill-opacity="0.45"/>
<rect x="36.0552" y="632.187" width="55.3804" height="55.3804" fill="#07130F" fill-opacity="0.45"/>
<rect x="1365.18" y="632.187" width="55.3804" height="55.3804" fill="#07130F" fill-opacity="0.45"/>
<rect x="146.816" y="632.187" width="55.3804" height="55.3804" fill="#07130F" fill-opacity="0.45"/>
<rect x="1475.95" y="632.187" width="55.3804" height="55.3804" fill="#07130F" fill-opacity="0.45"/>
<rect x="257.577" y="632.187" width="55.3804" height="55.3804" fill="#07130F" fill-opacity="0.45"/>
<rect x="368.337" y="632.187" width="55.3804" height="55.3804" fill="#07130F" fill-opacity="0.45"/>
<rect x="479.098" y="632.187" width="55.3804" height="55.3804" fill="#07130F" fill-opacity="0.45"/>
<rect x="589.859" y="632.187" width="55.3804" height="55.3804" fill="#07130F" fill-opacity="0.45"/>
<rect x="700.62" y="632.187" width="55.3804" height="55.3804" fill="#07130F" fill-opacity="0.45"/>
<rect x="756" y="687.47" width="55.3804" height="55.3804" fill="#07130F" fill-opacity="0.45"/>
<rect x="866.761" y="687.47" width="55.3804" height="55.3804" fill="#07130F" fill-opacity="0.45"/>
<rect x="977.522" y="687.47" width="55.3804" height="55.3804" fill="#07130F" fill-opacity="0.45"/>
<rect x="1088.28" y="687.47" width="55.3804" height="55.3804" fill="#07130F" fill-opacity="0.45"/>
<rect x="1199.04" y="687.47" width="55.3804" height="55.3804" fill="#07130F" fill-opacity="0.45"/>
<rect x="-19.3252" y="687.47" width="55.3804" height="55.3804" fill="#07130F" fill-opacity="0.45"/>
<rect x="1309.8" y="687.47" width="55.3804" height="55.3804" fill="#07130F" fill-opacity="0.45"/>
<rect x="91.4355" y="687.47" width="55.3804" height="55.3804" fill="#07130F" fill-opacity="0.45"/>
<rect x="1420.57" y="687.47" width="55.3804" height="55.3804" fill="#07130F" fill-opacity="0.45"/>
<rect x="202.196" y="687.47" width="55.3804" height="55.3804" fill="#07130F" fill-opacity="0.45"/>
<rect x="312.957" y="687.47" width="55.3804" height="55.3804" fill="#07130F" fill-opacity="0.45"/>
<rect x="423.718" y="687.47" width="55.3804" height="55.3804" fill="#07130F" fill-opacity="0.45"/>
<rect x="534.479" y="687.47" width="55.3804" height="55.3804" fill="#07130F" fill-opacity="0.45"/>
<rect x="645.239" y="687.47" width="55.3804" height="55.3804" fill="#07130F" fill-opacity="0.45"/>
<rect x="811.381" y="742.948" width="55.3804" height="55.3804" fill="#07130F" fill-opacity="0.45"/>
<rect x="922.142" y="742.948" width="55.3804" height="55.3804" fill="#07130F" fill-opacity="0.45"/>
<rect x="1032.9" y="742.948" width="55.3804" height="55.3804" fill="#07130F" fill-opacity="0.45"/>
<rect x="1143.66" y="742.948" width="55.3804" height="55.3804" fill="#07130F" fill-opacity="0.45"/>
<rect x="1254.42" y="742.948" width="55.3804" height="55.3804" fill="#07130F" fill-opacity="0.45"/>
<rect x="36.0552" y="742.948" width="55.3804" height="55.3804" fill="#07130F" fill-opacity="0.45"/>
<rect x="1365.18" y="742.948" width="55.3804" height="55.3804" fill="#07130F" fill-opacity="0.45"/>
<rect x="146.816" y="742.948" width="55.3804" height="55.3804" fill="#07130F" fill-opacity="0.45"/>
<rect x="1475.95" y="742.948" width="55.3804" height="55.3804" fill="#07130F" fill-opacity="0.45"/>
<rect x="257.577" y="742.948" width="55.3804" height="55.3804" fill="#07130F" fill-opacity="0.45"/>
<rect x="368.337" y="742.948" width="55.3804" height="55.3804" fill="#07130F" fill-opacity="0.45"/>
<rect x="479.098" y="742.948" width="55.3804" height="55.3804" fill="#07130F" fill-opacity="0.45"/>
<rect x="589.859" y="742.948" width="55.3804" height="55.3804" fill="#07130F" fill-opacity="0.45"/>
<rect x="700.62" y="742.948" width="55.3804" height="55.3804" fill="#07130F" fill-opacity="0.45"/>
<rect x="756" y="798.231" width="55.3804" height="55.3804" fill="#07130F" fill-opacity="0.45"/>
<rect x="866.761" y="798.231" width="55.3804" height="55.3804" fill="#07130F" fill-opacity="0.45"/>
<rect x="977.522" y="798.231" width="55.3804" height="55.3804" fill="#07130F" fill-opacity="0.45"/>
<rect x="1088.28" y="798.231" width="55.3804" height="55.3804" fill="#07130F" fill-opacity="0.45"/>
<rect x="1199.04" y="798.231" width="55.3804" height="55.3804" fill="#07130F" fill-opacity="0.45"/>
<rect x="-19.3252" y="798.231" width="55.3804" height="55.3804" fill="#07130F" fill-opacity="0.45"/>
<rect x="1309.8" y="798.231" width="55.3804" height="55.3804" fill="#07130F" fill-opacity="0.45"/>
<rect x="91.4355" y="798.231" width="55.3804" height="55.3804" fill="#07130F" fill-opacity="0.45"/>
<rect x="1420.57" y="798.231" width="55.3804" height="55.3804" fill="#07130F" fill-opacity="0.45"/>
<rect x="202.196" y="798.231" width="55.3804" height="55.3804" fill="#07130F" fill-opacity="0.45"/>
<rect x="312.957" y="798.231" width="55.3804" height="55.3804" fill="#07130F" fill-opacity="0.45"/>
<rect x="423.718" y="798.231" width="55.3804" height="55.3804" fill="#07130F" fill-opacity="0.45"/>
<rect x="534.479" y="798.231" width="55.3804" height="55.3804" fill="#07130F" fill-opacity="0.45"/>
<rect x="645.239" y="798.231" width="55.3804" height="55.3804" fill="#07130F" fill-opacity="0.45"/>
<rect x="811.381" y="853.708" width="55.3804" height="55.3804" fill="#07130F" fill-opacity="0.45"/>
<rect x="922.142" y="853.708" width="55.3804" height="55.3804" fill="#07130F" fill-opacity="0.45"/>
<rect x="1032.9" y="853.708" width="55.3804" height="55.3804" fill="#07130F" fill-opacity="0.45"/>
<rect x="1143.66" y="853.708" width="55.3804" height="55.3804" fill="#07130F" fill-opacity="0.45"/>
<rect x="1254.42" y="853.708" width="55.3804" height="55.3804" fill="#07130F" fill-opacity="0.45"/>
<rect x="36.0552" y="853.708" width="55.3804" height="55.3804" fill="#07130F" fill-opacity="0.45"/>
<rect x="1365.18" y="853.708" width="55.3804" height="55.3804" fill="#07130F" fill-opacity="0.45"/>
<rect x="146.816" y="853.708" width="55.3804" height="55.3804" fill="#07130F" fill-opacity="0.45"/>
<rect x="1475.95" y="853.708" width="55.3804" height="55.3804" fill="#07130F" fill-opacity="0.45"/>
<rect x="257.577" y="853.708" width="55.3804" height="55.3804" fill="#07130F" fill-opacity="0.45"/>
<rect x="368.337" y="853.708" width="55.3804" height="55.3804" fill="#07130F" fill-opacity="0.45"/>
<rect x="479.098" y="853.708" width="55.3804" height="55.3804" fill="#07130F" fill-opacity="0.45"/>
<rect x="589.859" y="853.708" width="55.3804" height="55.3804" fill="#07130F" fill-opacity="0.45"/>
<rect x="700.62" y="853.708" width="55.3804" height="55.3804" fill="#07130F" fill-opacity="0.45"/>
<rect x="756" y="908.991" width="55.3804" height="55.3804" fill="#07130F" fill-opacity="0.45"/>
<rect x="866.761" y="908.991" width="55.3804" height="55.3804" fill="#07130F" fill-opacity="0.45"/>
<rect x="977.522" y="908.991" width="55.3804" height="55.3804" fill="#07130F" fill-opacity="0.45"/>
<rect x="1088.28" y="908.991" width="55.3804" height="55.3804" fill="#07130F" fill-opacity="0.45"/>
<rect x="1199.04" y="908.991" width="55.3804" height="55.3804" fill="#07130F" fill-opacity="0.45"/>
<rect x="-19.3252" y="908.991" width="55.3804" height="55.3804" fill="#07130F" fill-opacity="0.45"/>
<rect x="1309.8" y="908.991" width="55.3804" height="55.3804" fill="#07130F" fill-opacity="0.45"/>
<rect x="91.4355" y="908.991" width="55.3804" height="55.3804" fill="#07130F" fill-opacity="0.45"/>
<rect x="1420.57" y="908.991" width="55.3804" height="55.3804" fill="#07130F" fill-opacity="0.45"/>
<rect x="202.196" y="908.991" width="55.3804" height="55.3804" fill="#07130F" fill-opacity="0.45"/>
<rect x="312.957" y="908.991" width="55.3804" height="55.3804" fill="#07130F" fill-opacity="0.45"/>
<rect x="423.718" y="908.991" width="55.3804" height="55.3804" fill="#07130F" fill-opacity="0.45"/>
<rect x="534.479" y="908.991" width="55.3804" height="55.3804" fill="#07130F" fill-opacity="0.45"/>
<rect x="645.239" y="908.991" width="55.3804" height="55.3804" fill="#07130F" fill-opacity="0.45"/>
<rect x="811.381" y="964.469" width="55.3804" height="55.3804" fill="#07130F" fill-opacity="0.45"/>
<rect x="811.381" y="-32.4745" width="55.3804" height="55.3804" fill="#07130F" fill-opacity="0.45"/>
<rect x="922.142" y="964.469" width="55.3804" height="55.3804" fill="#07130F" fill-opacity="0.45"/>
<rect x="922.142" y="-32.4745" width="55.3804" height="55.3804" fill="#07130F" fill-opacity="0.45"/>
<rect x="1032.9" y="964.469" width="55.3804" height="55.3804" fill="#07130F" fill-opacity="0.45"/>
<rect x="1032.9" y="-32.4745" width="55.3804" height="55.3804" fill="#07130F" fill-opacity="0.45"/>
<rect x="1143.66" y="964.469" width="55.3804" height="55.3804" fill="#07130F" fill-opacity="0.45"/>
<rect x="1143.66" y="-32.4745" width="55.3804" height="55.3804" fill="#07130F" fill-opacity="0.45"/>
<rect x="1254.42" y="964.469" width="55.3804" height="55.3804" fill="#07130F" fill-opacity="0.45"/>
<rect x="1254.42" y="-32.4745" width="55.3804" height="55.3804" fill="#07130F" fill-opacity="0.45"/>
<rect x="36.0552" y="964.469" width="55.3804" height="55.3804" fill="#07130F" fill-opacity="0.45"/>
<rect x="36.0552" y="-32.4745" width="55.3804" height="55.3804" fill="#07130F" fill-opacity="0.45"/>
<rect x="1365.18" y="964.469" width="55.3804" height="55.3804" fill="#07130F" fill-opacity="0.45"/>
<rect x="1365.18" y="-32.4745" width="55.3804" height="55.3804" fill="#07130F" fill-opacity="0.45"/>
<rect x="146.816" y="964.469" width="55.3804" height="55.3804" fill="#07130F" fill-opacity="0.45"/>
<rect x="146.816" y="-32.4745" width="55.3804" height="55.3804" fill="#07130F" fill-opacity="0.45"/>
<rect x="1475.95" y="964.469" width="55.3804" height="55.3804" fill="#07130F" fill-opacity="0.45"/>
<rect x="1475.95" y="-32.4745" width="55.3804" height="55.3804" fill="#07130F" fill-opacity="0.45"/>
<rect x="257.577" y="964.469" width="55.3804" height="55.3804" fill="#07130F" fill-opacity="0.45"/>
<rect x="257.577" y="-32.4745" width="55.3804" height="55.3804" fill="#07130F" fill-opacity="0.45"/>
<rect x="368.337" y="964.469" width="55.3804" height="55.3804" fill="#07130F" fill-opacity="0.45"/>
<rect x="368.337" y="-32.4745" width="55.3804" height="55.3804" fill="#07130F" fill-opacity="0.45"/>
<rect x="479.098" y="964.469" width="55.3804" height="55.3804" fill="#07130F" fill-opacity="0.45"/>
<rect x="479.098" y="-32.4745" width="55.3804" height="55.3804" fill="#07130F" fill-opacity="0.45"/>
<rect x="589.859" y="964.469" width="55.3804" height="55.3804" fill="#07130F" fill-opacity="0.45"/>
<rect x="589.859" y="-32.4745" width="55.3804" height="55.3804" fill="#07130F" fill-opacity="0.45"/>
<rect x="700.62" y="964.469" width="55.3804" height="55.3804" fill="#07130F" fill-opacity="0.45"/>
<rect x="700.62" y="-32.4745" width="55.3804" height="55.3804" fill="#07130F" fill-opacity="0.45"/>
<rect x="756" y="22.8088" width="55.3804" height="55.3804" fill="#07130F" fill-opacity="0.45"/>
<rect x="866.761" y="22.8088" width="55.3804" height="55.3804" fill="#07130F" fill-opacity="0.45"/>
<rect x="977.522" y="22.8088" width="55.3804" height="55.3804" fill="#07130F" fill-opacity="0.45"/>
<rect x="1088.28" y="22.8088" width="55.3804" height="55.3804" fill="#07130F" fill-opacity="0.45"/>
<rect x="1199.04" y="22.8088" width="55.3804" height="55.3804" fill="#07130F" fill-opacity="0.45"/>
<rect x="-19.3252" y="22.8088" width="55.3804" height="55.3804" fill="#07130F" fill-opacity="0.45"/>
<rect x="1309.8" y="22.8088" width="55.3804" height="55.3804" fill="#07130F" fill-opacity="0.45"/>
<rect x="91.4355" y="22.8088" width="55.3804" height="55.3804" fill="#07130F" fill-opacity="0.45"/>
<rect x="1420.57" y="22.8088" width="55.3804" height="55.3804" fill="#07130F" fill-opacity="0.45"/>
<rect x="202.196" y="22.8088" width="55.3804" height="55.3804" fill="#07130F" fill-opacity="0.45"/>
<rect x="312.957" y="22.8088" width="55.3804" height="55.3804" fill="#07130F" fill-opacity="0.45"/>
<rect x="423.718" y="22.8088" width="55.3804" height="55.3804" fill="#07130F" fill-opacity="0.45"/>
<rect x="534.479" y="22.8088" width="55.3804" height="55.3804" fill="#07130F" fill-opacity="0.45"/>
<rect x="645.239" y="22.8088" width="55.3804" height="55.3804" fill="#07130F" fill-opacity="0.45"/>
<rect x="811.381" y="78.2861" width="55.3804" height="55.3804" fill="#07130F" fill-opacity="0.45"/>
<rect x="922.142" y="78.2861" width="55.3804" height="55.3804" fill="#07130F" fill-opacity="0.45"/>
<rect x="1032.9" y="78.2861" width="55.3804" height="55.3804" fill="#07130F" fill-opacity="0.45"/>
<rect x="1143.66" y="78.2861" width="55.3804" height="55.3804" fill="#07130F" fill-opacity="0.45"/>
<rect x="1254.42" y="78.2861" width="55.3804" height="55.3804" fill="#07130F" fill-opacity="0.45"/>
<rect x="36.0552" y="78.2861" width="55.3804" height="55.3804" fill="#07130F" fill-opacity="0.45"/>
<rect x="1365.18" y="78.2861" width="55.3804" height="55.3804" fill="#07130F" fill-opacity="0.45"/>
<rect x="146.816" y="78.2861" width="55.3804" height="55.3804" fill="#07130F" fill-opacity="0.45"/>
<rect x="1475.95" y="78.2861" width="55.3804" height="55.3804" fill="#07130F" fill-opacity="0.45"/>
<rect x="257.577" y="78.2861" width="55.3804" height="55.3804" fill="#07130F" fill-opacity="0.45"/>
<rect x="368.337" y="78.2861" width="55.3804" height="55.3804" fill="#07130F" fill-opacity="0.45"/>
<rect x="479.098" y="78.2861" width="55.3804" height="55.3804" fill="#07130F" fill-opacity="0.45"/>
<rect x="589.859" y="78.2861" width="55.3804" height="55.3804" fill="#07130F" fill-opacity="0.45"/>
<rect x="700.62" y="78.2861" width="55.3804" height="55.3804" fill="#07130F" fill-opacity="0.45"/>
<rect x="756" y="133.57" width="55.3804" height="55.3804" fill="#07130F" fill-opacity="0.45"/>
<rect x="866.761" y="133.57" width="55.3804" height="55.3804" fill="#07130F" fill-opacity="0.45"/>
<rect x="977.522" y="133.57" width="55.3804" height="55.3804" fill="#07130F" fill-opacity="0.45"/>
<rect x="1088.28" y="133.57" width="55.3804" height="55.3804" fill="#07130F" fill-opacity="0.45"/>
<rect x="1199.04" y="133.57" width="55.3804" height="55.3804" fill="#07130F" fill-opacity="0.45"/>
<rect x="-19.3252" y="133.57" width="55.3804" height="55.3804" fill="#07130F" fill-opacity="0.45"/>
<rect x="1309.8" y="133.57" width="55.3804" height="55.3804" fill="#07130F" fill-opacity="0.45"/>
<rect x="91.4355" y="133.57" width="55.3804" height="55.3804" fill="#07130F" fill-opacity="0.45"/>
<rect x="1420.57" y="133.57" width="55.3804" height="55.3804" fill="#07130F" fill-opacity="0.45"/>
<rect x="202.196" y="133.57" width="55.3804" height="55.3804" fill="#07130F" fill-opacity="0.45"/>
<rect x="312.957" y="133.57" width="55.3804" height="55.3804" fill="#07130F" fill-opacity="0.45"/>
<rect x="423.718" y="133.57" width="55.3804" height="55.3804" fill="#07130F" fill-opacity="0.45"/>
<rect x="534.479" y="133.57" width="55.3804" height="55.3804" fill="#07130F" fill-opacity="0.45"/>
<rect x="645.239" y="133.57" width="55.3804" height="55.3804" fill="#07130F" fill-opacity="0.45"/>
<rect x="811.381" y="189.047" width="55.3804" height="55.3804" fill="#07130F" fill-opacity="0.45"/>
<rect x="922.142" y="189.047" width="55.3804" height="55.3804" fill="#07130F" fill-opacity="0.45"/>
<rect x="1032.9" y="189.047" width="55.3804" height="55.3804" fill="#07130F" fill-opacity="0.45"/>
<rect x="1143.66" y="189.047" width="55.3804" height="55.3804" fill="#07130F" fill-opacity="0.45"/>
<rect x="1254.42" y="189.047" width="55.3804" height="55.3804" fill="#07130F" fill-opacity="0.45"/>
<rect x="36.0552" y="189.047" width="55.3804" height="55.3804" fill="#07130F" fill-opacity="0.45"/>
<rect x="1365.18" y="189.047" width="55.3804" height="55.3804" fill="#07130F" fill-opacity="0.45"/>
<rect x="146.816" y="189.047" width="55.3804" height="55.3804" fill="#07130F" fill-opacity="0.45"/>
<rect x="1475.95" y="189.047" width="55.3804" height="55.3804" fill="#07130F" fill-opacity="0.45"/>
<rect x="257.577" y="189.047" width="55.3804" height="55.3804" fill="#07130F" fill-opacity="0.45"/>
<rect x="368.337" y="189.047" width="55.3804" height="55.3804" fill="#07130F" fill-opacity="0.45"/>
<rect x="479.098" y="189.047" width="55.3804" height="55.3804" fill="#07130F" fill-opacity="0.45"/>
<rect x="589.859" y="189.047" width="55.3804" height="55.3804" fill="#07130F" fill-opacity="0.45"/>
<rect x="700.62" y="189.047" width="55.3804" height="55.3804" fill="#07130F" fill-opacity="0.45"/>
<rect x="756" y="244.33" width="55.3804" height="55.3804" fill="#07130F" fill-opacity="0.45"/>
<rect x="866.761" y="244.33" width="55.3804" height="55.3804" fill="#07130F" fill-opacity="0.45"/>
<rect x="977.522" y="244.33" width="55.3804" height="55.3804" fill="#07130F" fill-opacity="0.45"/>
<rect x="1088.28" y="244.33" width="55.3804" height="55.3804" fill="#07130F" fill-opacity="0.45"/>
<rect x="1199.04" y="244.33" width="55.3804" height="55.3804" fill="#07130F" fill-opacity="0.45"/>
<rect x="-19.3252" y="244.33" width="55.3804" height="55.3804" fill="#07130F" fill-opacity="0.45"/>
<rect x="1309.8" y="244.33" width="55.3804" height="55.3804" fill="#07130F" fill-opacity="0.45"/>
<rect x="91.4355" y="244.33" width="55.3804" height="55.3804" fill="#07130F" fill-opacity="0.45"/>
<rect x="1420.57" y="244.33" width="55.3804" height="55.3804" fill="#07130F" fill-opacity="0.45"/>
<rect x="202.196" y="244.33" width="55.3804" height="55.3804" fill="#07130F" fill-opacity="0.45"/>
<rect x="312.957" y="244.33" width="55.3804" height="55.3804" fill="#07130F" fill-opacity="0.45"/>
<rect x="423.718" y="244.33" width="55.3804" height="55.3804" fill="#07130F" fill-opacity="0.45"/>
<rect x="534.479" y="244.33" width="55.3804" height="55.3804" fill="#07130F" fill-opacity="0.45"/>
<rect x="645.239" y="244.33" width="55.3804" height="55.3804" fill="#07130F" fill-opacity="0.45"/>
<rect x="811.381" y="299.808" width="55.3804" height="55.3804" fill="#07130F" fill-opacity="0.45"/>
<rect x="922.142" y="299.808" width="55.3804" height="55.3804" fill="#07130F" fill-opacity="0.45"/>
<rect x="1032.9" y="299.808" width="55.3804" height="55.3804" fill="#07130F" fill-opacity="0.45"/>
<rect x="1143.66" y="299.808" width="55.3804" height="55.3804" fill="#07130F" fill-opacity="0.45"/>
<rect x="1254.42" y="299.808" width="55.3804" height="55.3804" fill="#07130F" fill-opacity="0.45"/>
<rect x="36.0552" y="299.808" width="55.3804" height="55.3804" fill="#07130F" fill-opacity="0.45"/>
<rect x="1365.18" y="299.808" width="55.3804" height="55.3804" fill="#07130F" fill-opacity="0.45"/>
<rect x="146.816" y="299.808" width="55.3804" height="55.3804" fill="#07130F" fill-opacity="0.45"/>
<rect x="1475.95" y="299.808" width="55.3804" height="55.3804" fill="#07130F" fill-opacity="0.45"/>
<rect x="257.577" y="299.808" width="55.3804" height="55.3804" fill="#07130F" fill-opacity="0.45"/>
<rect x="368.337" y="299.808" width="55.3804" height="55.3804" fill="#07130F" fill-opacity="0.45"/>
<rect x="479.098" y="299.808" width="55.3804" height="55.3804" fill="#07130F" fill-opacity="0.45"/>
<rect x="589.859" y="299.808" width="55.3804" height="55.3804" fill="#07130F" fill-opacity="0.45"/>
<rect x="700.62" y="299.808" width="55.3804" height="55.3804" fill="#07130F" fill-opacity="0.45"/>
<rect x="756" y="355.091" width="55.3804" height="55.3804" fill="#07130F" fill-opacity="0.45"/>
<rect x="866.761" y="355.091" width="55.3804" height="55.3804" fill="#07130F" fill-opacity="0.45"/>
<rect x="977.522" y="355.091" width="55.3804" height="55.3804" fill="#07130F" fill-opacity="0.45"/>
<rect x="1088.28" y="355.091" width="55.3804" height="55.3804" fill="#07130F" fill-opacity="0.45"/>
<rect x="1199.04" y="355.091" width="55.3804" height="55.3804" fill="#07130F" fill-opacity="0.45"/>
<rect x="-19.3252" y="355.091" width="55.3804" height="55.3804" fill="#07130F" fill-opacity="0.45"/>
<rect x="1309.8" y="355.091" width="55.3804" height="55.3804" fill="#07130F" fill-opacity="0.45"/>
<rect x="91.4355" y="355.091" width="55.3804" height="55.3804" fill="#07130F" fill-opacity="0.45"/>
<rect x="1420.57" y="355.091" width="55.3804" height="55.3804" fill="#07130F" fill-opacity="0.45"/>
<rect x="202.196" y="355.091" width="55.3804" height="55.3804" fill="#07130F" fill-opacity="0.45"/>
<rect x="312.957" y="355.091" width="55.3804" height="55.3804" fill="#07130F" fill-opacity="0.45"/>
<rect x="423.718" y="355.091" width="55.3804" height="55.3804" fill="#07130F" fill-opacity="0.45"/>
<rect x="534.479" y="355.091" width="55.3804" height="55.3804" fill="#07130F" fill-opacity="0.45"/>
<rect x="645.239" y="355.091" width="55.3804" height="55.3804" fill="#07130F" fill-opacity="0.45"/>
<rect x="811.381" y="410.568" width="55.3804" height="55.3804" fill="#07130F" fill-opacity="0.45"/>
<rect x="922.142" y="410.568" width="55.3804" height="55.3804" fill="#07130F" fill-opacity="0.45"/>
<rect x="1032.9" y="410.568" width="55.3804" height="55.3804" fill="#07130F" fill-opacity="0.45"/>
<rect x="1143.66" y="410.568" width="55.3804" height="55.3804" fill="#07130F" fill-opacity="0.45"/>
<rect x="1254.42" y="410.568" width="55.3804" height="55.3804" fill="#07130F" fill-opacity="0.45"/>
<rect x="36.0552" y="410.568" width="55.3804" height="55.3804" fill="#07130F" fill-opacity="0.45"/>
<rect x="1365.18" y="410.568" width="55.3804" height="55.3804" fill="#07130F" fill-opacity="0.45"/>
<rect x="146.816" y="410.568" width="55.3804" height="55.3804" fill="#07130F" fill-opacity="0.45"/>
<rect x="1475.95" y="410.568" width="55.3804" height="55.3804" fill="#07130F" fill-opacity="0.45"/>
<rect x="257.577" y="410.568" width="55.3804" height="55.3804" fill="#07130F" fill-opacity="0.45"/>
<rect x="368.337" y="410.568" width="55.3804" height="55.3804" fill="#07130F" fill-opacity="0.45"/>
<rect x="479.098" y="410.568" width="55.3804" height="55.3804" fill="#07130F" fill-opacity="0.45"/>
<rect x="589.859" y="410.568" width="55.3804" height="55.3804" fill="#07130F" fill-opacity="0.45"/>
<rect x="700.62" y="410.568" width="55.3804" height="55.3804" fill="#07130F" fill-opacity="0.45"/>
</g>
</g>
<defs>
<linearGradient id="paint0_linear_3_106" x1="756" y1="0" x2="756" y2="982" gradientUnits="userSpaceOnUse">
<stop stop-color="#184035"/>
<stop offset="1" stop-color="#07120F"/>
</linearGradient>
<clipPath id="clip0_3_106">
<rect width="1512" height="982" fill="white" transform="translate(0 0.5)"/>
</clipPath>
</defs>
</svg>
